<svg width="560" height="320" xmlns="http://www.w3.org/2000/svg" xmlns:svg="http://www.w3.org/2000/svg">

 <g>
  <title>Layer 1</title>
  <text id="svg_7" font-family="Arial" font-size="11px" text-anchor="middle" y="273" x="280"/>
  <line id="svg_8" stroke="rgb(0, 0, 0)" stroke-linecap="square" stroke-width="2" y2="60" x2="480" y1="60" x1="400"/>
  <text fill="black" id="svg_9" font-family="Arial" font-size="11px" text-anchor="start" y="273" x="276">F</text>
  <text fill="black" id="svg_10" font-family="Arial" font-size="11px" text-anchor="start" y="53" x="483">D</text>
  <text fill="black" id="svg_11" font-family="Arial" font-size="11px" text-anchor="start" y="53" x="276">C</text>
  <text fill="black" id="svg_12" font-family="Arial" font-size="11px" text-anchor="start" y="273" x="483">E</text>
  <text fill="black" id="svg_13" font-family="Arial" font-size="11px" text-anchor="start" y="272" x="70">A</text>
  <text fill="black" id="svg_14" font-family="Arial" font-size="11px" text-anchor="start" y="54" x="69">B</text>
  <text transform="matrix(1.60011, 0, 0, 1.70915, -293.868, -157.77)" fill="black" id="svg_15" font-family="Arial" font-size="11px" text-anchor="start" y="221.170169" x="489.375043">Wire W</text>
  <line id="svg_16" stroke="rgb(0, 0, 0)" stroke-linecap="square" stroke-width="2" y2="185" x2="260" y1="130" x1="260"/>
  <path id="svg_17" fill="rgb(0, 0, 0)" stroke="rgb(0, 0, 0)" stroke-linecap="square" stroke-width="2" d="m260,185l3,0l-3,5l-3,-5l3,0"/>
  <text id="svg_18" font-family="Arial" font-size="11px" text-anchor="end" y="160" x="252">6 A</text>
  <line id="svg_19" stroke="rgb(0, 0, 0)" stroke-linecap="square" stroke-width="2" y2="80" x2="205" y1="80" x1="150"/>
  <path id="svg_20" fill="rgb(0, 0, 0)" stroke="rgb(0, 0, 0)" stroke-linecap="square" stroke-width="2" d="m205,80l0,3l5,-3l-5,-3l0,3"/>
  <text fill="black" id="svg_21" font-family="Arial" font-size="11px" text-anchor="middle" y="94" x="181">10 A</text>
  <line id="svg_22" stroke="rgb(0, 0, 0)" stroke-linecap="square" stroke-width="2" y2="60" x2="480" y1="60" x1="470"/>
  <line id="svg_23" stroke="rgb(0, 0, 0)" stroke-linecap="square" stroke-width="2" y2="60" x2="480" y1="60" x1="470"/>
  <line id="svg_24" stroke="rgb(0, 0, 0)" stroke-linecap="square" stroke-width="2" y2="70" x2="80" y1="60" x1="80"/>
  <line id="svg_25" stroke="rgb(0, 0, 0)" stroke-linecap="square" stroke-width="2" y2="260" x2="80" y1="230" x1="80"/>
  <line id="svg_26" stroke="rgb(0, 0, 0)" stroke-linecap="square" stroke-width="2" y2="260" x2="480" y1="230" x1="480"/>
  <line id="svg_27" stroke="rgb(0, 0, 0)" stroke-linecap="square" stroke-width="2" y2="260" x2="480" y1="260" x1="80"/>
  <line id="svg_28" stroke="rgb(0, 0, 0)" stroke-linecap="square" stroke-width="2" y2="140" x2="480" y1="60" x1="480"/>
  <line id="svg_29" stroke="rgb(0, 0, 0)" stroke-linecap="square" stroke-width="2" y2="260" x2="480" y1="180" x1="480"/>
  <path id="svg_30" fill-opacity="0" fill="rgb(0, 0, 0)" stroke="rgb(0, 0, 0)" stroke-linecap="square" stroke-width="2" d="m480,140l0,2l-7,3l14,6l-14,6l14,6l-14,6l14,6l-7,3l0,2"/>
  <text id="svg_31" font-family="Arial" font-size="11px" text-anchor="end" y="160" x="466"/>
  <line id="svg_32" stroke="rgb(0, 0, 0)" stroke-linecap="square" stroke-width="2" y2="60" x2="360" y1="60" x1="280"/>
  <line id="svg_33" stroke="rgb(0, 0, 0)" stroke-linecap="square" stroke-width="2" y2="60" x2="480" y1="60" x1="400"/>
  <path id="svg_34" fill-opacity="0" fill="rgb(0, 0, 0)" stroke="rgb(0, 0, 0)" stroke-linecap="square" stroke-width="2" d="m360,60l2,0l3,-7l6,14l6,-14l6,14l6,-14l6,14l3,-7l2,0"/>
  <text id="svg_35" font-family="Arial" font-size="11px" text-anchor="middle" y="43" x="380"/>
  <line id="svg_36" stroke="rgb(0, 0, 0)" stroke-linecap="square" stroke-width="2" y2="140" x2="280" y1="60" x1="280"/>
  <line id="svg_37" stroke="rgb(0, 0, 0)" stroke-linecap="square" stroke-width="2" y2="260" x2="280" y1="180" x1="280"/>
  <path id="svg_38" fill-opacity="0" fill="rgb(0, 0, 0)" stroke="rgb(0, 0, 0)" stroke-linecap="square" stroke-width="2" d="m280,140l0,2l-7,3l14,6l-14,6l14,6l-14,6l14,6l-7,3l0,2"/>
  <text id="svg_39" font-family="Arial" font-size="11px" text-anchor="end" y="160" x="266"/>
  <line id="svg_40" stroke="rgb(0, 0, 0)" stroke-linecap="square" stroke-width="2" y2="60" x2="160" y1="60" x1="80"/>
  <line id="svg_41" stroke="rgb(0, 0, 0)" stroke-linecap="square" stroke-width="2" y2="60" x2="280" y1="60" x1="200"/>
  <path id="svg_42" fill-opacity="0" fill="rgb(0, 0, 0)" stroke="rgb(0, 0, 0)" stroke-linecap="square" stroke-width="2" d="m160,60l2,0l3,-7l6,14l6,-14l6,14l6,-14l6,14l3,-7l2,0"/>
  <text id="svg_43" font-family="Arial" font-size="11px" text-anchor="middle" y="43" x="180">7 Ω</text>
  <line id="svg_44" stroke="rgb(0, 0, 0)" stroke-linecap="square" stroke-width="2" y2="157" x2="80" y1="60" x1="80"/>
  <line id="svg_45" stroke="rgb(0, 0, 0)" stroke-linecap="square" stroke-width="2" y2="157" x2="90" y1="157" x1="70"/>
  <line id="svg_46" stroke="rgb(0, 0, 0)" stroke-linecap="square" stroke-width="3" y2="163" x2="85" y1="163" x1="75"/>
  <line id="svg_47" stroke="rgb(0, 0, 0)" stroke-linecap="square" stroke-width="2" y2="260" x2="80" y1="163" x1="80"/>
  <text style="cursor: move;" fill="black" id="svg_48" font-family="Arial" font-size="12px" text-anchor="end" y="160" x="66">100 V</text>
  <ellipse id="svg_49" fill="rgb(0, 0, 0)" stroke="rgb(0, 0, 0)" stroke-width="2" ry="2" rx="2" cy="60" cx="480"/>
  <ellipse id="svg_50" fill="rgb(0, 0, 0)" stroke="rgb(0, 0, 0)" stroke-width="2" ry="2" rx="2" cy="60" cx="80"/>
  <ellipse id="svg_51" fill="rgb(0, 0, 0)" stroke="rgb(0, 0, 0)" stroke-width="2" ry="2" rx="2" cy="260" cx="80"/>
  <ellipse id="svg_52" fill="rgb(0, 0, 0)" stroke="rgb(0, 0, 0)" stroke-width="2" ry="2" rx="2" cy="260" cx="480"/>
  <ellipse id="svg_53" fill="rgb(0, 0, 0)" stroke="rgb(0, 0, 0)" stroke-width="2" ry="2" rx="2" cy="260" cx="280"/>
  <ellipse id="svg_54" fill="rgb(0, 0, 0)" stroke="rgb(0, 0, 0)" stroke-width="2" ry="2" rx="2" cy="60" cx="280"/>
  <g transform="rotate(-45, 380, 160)" id="svg_55">
   <line id="svg_4" stroke="rgb(0, 0, 0)" stroke-linecap="square" stroke-width="2" y2="160" x2="360" y1="160" x1="240"/>
   <line id="svg_5" stroke="rgb(0, 0, 0)" stroke-linecap="square" stroke-width="2" y2="160" x2="520" y1="160" x1="400"/>
   <path id="svg_6" fill-opacity="0" fill="rgb(0, 0, 0)" stroke="rgb(0, 0, 0)" stroke-linecap="square" stroke-width="2" d="m361,160l2,0l3,-7l6,14l6,-14l6,14l6,-14l6,14l3,-7l2,0"/>
  </g>
  <g transform="rotate(-45, 362, 142)" id="svg_56">
   <line id="svg_1" stroke="rgb(0, 0, 0)" stroke-linecap="square" stroke-width="2" y2="149" x2="337" y1="149" x1="392"/>
   <path id="svg_2" fill="rgb(0, 0, 0)" stroke="rgb(0, 0, 0)" stroke-linecap="square" stroke-width="2" d="m337,149l0,-3l-5,3l5,3l0,-3"/>
   <text fill="black" id="svg_3" font-family="Arial" font-size="11px" text-anchor="middle" y="142" x="362">1 A</text>
  </g>
 </g>
</svg>