<svg width="600" height="500" xmlns="http://www.w3.org/2000/svg" xmlns:svg="http://www.w3.org/2000/svg">
 <g>
  <title>Layer 1</title>
  <text x="289" y="243" text-anchor="start" font-size="11px" font-family="Arial" id="svg_1" fill="black">I</text>
  <text x="69" y="253" text-anchor="start" font-size="11px" font-family="Arial" id="svg_2" fill="black">H</text>
  <text x="72" y="462" text-anchor="start" font-size="11px" font-family="Arial" id="svg_3" fill="black">G</text>
  <text x="491" y="253" text-anchor="start" font-size="11px" font-family="Arial" id="svg_4" fill="black">D</text>
  <text x="488" y="462" text-anchor="start" font-size="11px" font-family="Arial" id="svg_5" fill="black">E</text>
  <text x="281" y="465" text-anchor="start" font-size="11px" font-family="Arial" id="svg_6" fill="black">F</text>
  <text x="488" y="43" text-anchor="start" font-size="11px" font-family="Arial" id="svg_7" fill="black">C</text>
  <text x="280" y="42" text-anchor="start" font-size="11px" font-family="Arial" id="svg_8" fill="black">B</text>
  <text x="73" y="43" text-anchor="start" font-size="11px" font-family="Arial" id="svg_9" fill="black">A</text>
  <line x1="414" y1="269" x2="359" y2="269" stroke-width="2" stroke-linecap="square" stroke="rgb(0, 0, 0)" id="svg_10"/>
  <path d="m359,269l0,3l-5,-3l5,-3l0,3" stroke-width="2" stroke-linecap="square" stroke="rgb(0, 0, 0)" fill="rgb(0, 0, 0)" id="svg_11"/>
  <text x="384" y="284" text-anchor="middle" font-size="11px" font-family="Arial" id="svg_12" fill="black">W11: 1 A</text>
  <line x1="154" y1="269" x2="209" y2="269" stroke-width="2" stroke-linecap="square" stroke="rgb(0, 0, 0)" id="svg_13"/>
  <path d="m209,269l0,3l5,-3l-5,-3l0,3" stroke-width="2" stroke-linecap="square" stroke="rgb(0, 0, 0)" fill="rgb(0, 0, 0)" id="svg_14"/>
  <text x="184" y="284" text-anchor="middle" font-size="11px" font-family="Arial" id="svg_15" fill="black">W10: 0.75 A</text>
  <line x1="304" y1="379" x2="304" y2="324" stroke-width="2" stroke-linecap="square" stroke="rgb(0, 0, 0)" id="svg_16"/>
  <path d="m304,324l-3,0l3,-5l3,5l-3,0" stroke-width="2" stroke-linecap="square" stroke="rgb(0, 0, 0)" fill="rgb(0, 0, 0)" id="svg_17"/>
  <text x="308" y="349" text-anchor="start" font-size="11px" font-family="Arial" id="svg_18" fill="black">W12: – 1 A</text>
  <line x1="304" y1="119" x2="304" y2="174" stroke-width="2" stroke-linecap="square" stroke="rgb(0, 0, 0)" id="svg_19"/>
  <path d="m304,174l-3,0l3,5l3,-5l-3,0" stroke-width="2" stroke-linecap="square" stroke="rgb(0, 0, 0)" fill="rgb(0, 0, 0)" id="svg_20"/>
  <text x="309" y="149" text-anchor="start" font-size="11px" font-family="Arial" id="svg_21" fill="black">W9: – 1 A</text>
  <line x1="104" y1="179" x2="104" y2="124" stroke-width="2" stroke-linecap="square" stroke="rgb(0, 0, 0)" id="svg_22"/>
  <path d="m104,124l-3,0l3,-5l3,5l-3,0" stroke-width="2" stroke-linecap="square" stroke="rgb(0, 0, 0)" fill="rgb(0, 0, 0)" id="svg_23"/>
  <text x="109" y="149" text-anchor="start" font-size="11px" font-family="Arial" id="svg_24" fill="black">W1: – 0.25 A</text>
  <line x1="104" y1="379" x2="104" y2="324" stroke-width="2" stroke-linecap="square" stroke="rgb(0, 0, 0)" id="svg_25"/>
  <path d="m104,324l-3,0l3,-5l3,5l-3,0" stroke-width="2" stroke-linecap="square" stroke="rgb(0, 0, 0)" fill="rgb(0, 0, 0)" id="svg_26"/>
  <text x="109" y="349" text-anchor="start" font-size="11px" font-family="Arial" id="svg_27" fill="black">W8: 1 A</text>
  <line x1="214" y1="469" x2="159" y2="469" stroke-width="2" stroke-linecap="square" stroke="rgb(0, 0, 0)" id="svg_28"/>
  <path d="m159,469l0,3l-5,-3l5,-3l0,3" stroke-width="2" stroke-linecap="square" stroke="rgb(0, 0, 0)" fill="rgb(0, 0, 0)" id="svg_29"/>
  <text x="184" y="484" text-anchor="middle" font-size="11px" font-family="Arial" id="svg_30" fill="black">W7: 1 A</text>
  <line x1="414" y1="469" x2="359" y2="469" stroke-width="2" stroke-linecap="square" stroke="rgb(0, 0, 0)" id="svg_31"/>
  <path d="m359,469l0,3l-5,-3l5,-3l0,3" stroke-width="2" stroke-linecap="square" stroke="rgb(0, 0, 0)" fill="rgb(0, 0, 0)" id="svg_32"/>
  <text x="384" y="484" text-anchor="middle" font-size="11px" font-family="Arial" id="svg_33" fill="black">W6: – 0.5 A</text>
  <line x1="504" y1="319" x2="504" y2="374" stroke-width="2" stroke-linecap="square" stroke="rgb(0, 0, 0)" id="svg_34"/>
  <path d="m504,374l-3,0l3,5l3,-5l-3,0" stroke-width="2" stroke-linecap="square" stroke="rgb(0, 0, 0)" fill="rgb(0, 0, 0)" id="svg_35"/>
  <text x="509" y="349" text-anchor="start" font-size="11px" font-family="Arial" id="svg_36" fill="black">W5: – 0.25 A</text>
  <line x1="504" y1="119" x2="504" y2="174" stroke-width="2" stroke-linecap="square" stroke="rgb(0, 0, 0)" id="svg_37"/>
  <path d="m504,174l-3,0l3,5l3,-5l-3,0" stroke-width="2" stroke-linecap="square" stroke="rgb(0, 0, 0)" fill="rgb(0, 0, 0)" id="svg_38"/>
  <text x="509" y="149" text-anchor="start" font-size="11px" font-family="Arial" id="svg_39" fill="black">W4: 0.25 A</text>
  <line x1="354" y1="69" x2="409" y2="69" stroke-width="2" stroke-linecap="square" stroke="rgb(0, 0, 0)" id="svg_40"/>
  <path d="m409,69l0,3l5,-3l-5,-3l0,3" stroke-width="2" stroke-linecap="square" stroke="rgb(0, 0, 0)" fill="rgb(0, 0, 0)" id="svg_41"/>
  <text x="384" y="84" text-anchor="middle" font-size="11px" font-family="Arial" id="svg_42" fill="black">W3: 0.5 A</text>
  <line x1="154" y1="69" x2="209" y2="69" stroke-width="2" stroke-linecap="square" stroke="rgb(0, 0, 0)" id="svg_43"/>
  <path d="m209,69l0,3l5,-3l-5,-3l0,3" stroke-width="2" stroke-linecap="square" stroke="rgb(0, 0, 0)" fill="rgb(0, 0, 0)" id="svg_44"/>
  <text x="184" y="84" text-anchor="middle" font-size="11px" font-family="Arial" id="svg_45" fill="black">W2: –  0.25 A</text>
  <line x1="484" y1="449" x2="484" y2="449" stroke-width="2" stroke-linecap="square" stroke="rgb(0, 0, 0)" id="svg_46"/>
  <line x1="84" y1="449" x2="84" y2="449" stroke-width="2" stroke-linecap="square" stroke="rgb(0, 0, 0)" id="svg_47"/>
  <line x1="484" y1="49" x2="484" y2="59" stroke-width="2" stroke-linecap="square" stroke="rgb(0, 0, 0)" id="svg_48"/>
  <line x1="84" y1="49" x2="84" y2="49" stroke-width="2" stroke-linecap="square" stroke="rgb(0, 0, 0)" id="svg_49"/>
  <line x1="484" y1="349" x2="484" y2="396" stroke-width="2" stroke-linecap="square" stroke="rgb(0, 0, 0)" id="svg_50"/>
  <line x1="474" y1="396" x2="494" y2="396" stroke-width="2" stroke-linecap="square" stroke="rgb(0, 0, 0)" id="svg_51"/>
  <line x1="479" y1="402" x2="489" y2="402" stroke-width="3" stroke-linecap="square" stroke="rgb(0, 0, 0)" id="svg_52"/>
  <line x1="484" y1="402" x2="484" y2="449" stroke-width="2" stroke-linecap="square" stroke="rgb(0, 0, 0)" id="svg_53"/>
  <text x="470" y="399" text-anchor="end" font-size="12px" font-family="Arial" id="svg_54" fill="black">1 V</text>
  <line x1="484" y1="249" x2="484" y2="279" stroke-width="2" stroke-linecap="square" stroke="rgb(0, 0, 0)" id="svg_55"/>
  <line x1="484" y1="319" x2="484" y2="349" stroke-width="2" stroke-linecap="square" stroke="rgb(0, 0, 0)" id="svg_56"/>
  <path d="m484,279l0,2l-7,3l14,6l-14,6l14,6l-14,6l14,6l-7,3l0,2" stroke-width="2" stroke-linecap="square" stroke="rgb(0, 0, 0)" fill="rgb(0, 0, 0)" fill-opacity="0" id="svg_57"/>
  <text x="470" y="299" text-anchor="end" font-size="11px" font-family="Arial" id="svg_58">1 Ω</text>
  <line x1="284" y1="449" x2="364" y2="449" stroke-width="2" stroke-linecap="square" stroke="rgb(0, 0, 0)" id="svg_59"/>
  <line x1="404" y1="449" x2="484" y2="449" stroke-width="2" stroke-linecap="square" stroke="rgb(0, 0, 0)" id="svg_60"/>
  <path d="m364,449l2,0l3,-7l6,14l6,-14l6,14l6,-14l6,14l3,-7l2,0" stroke-width="2" stroke-linecap="square" stroke="rgb(0, 0, 0)" fill="rgb(0, 0, 0)" fill-opacity="0" id="svg_61"/>
  <text x="384" y="432" text-anchor="middle" font-size="11px" font-family="Arial" id="svg_62">12 Ω</text>
  <line x1="284" y1="449" x2="284" y2="352" stroke-width="2" stroke-linecap="square" stroke="rgb(0, 0, 0)" id="svg_63"/>
  <line x1="274" y1="352" x2="294" y2="352" stroke-width="2" stroke-linecap="square" stroke="rgb(0, 0, 0)" id="svg_64"/>
  <line x1="279" y1="346" x2="289" y2="346" stroke-width="3" stroke-linecap="square" stroke="rgb(0, 0, 0)" id="svg_65"/>
  <line x1="284" y1="346" x2="284" y2="249" stroke-width="2" stroke-linecap="square" stroke="rgb(0, 0, 0)" id="svg_66"/>
  <text x="270" y="349" text-anchor="end" font-size="12px" font-family="Arial" id="svg_67" fill="black">2 V</text>
  <line x1="84" y1="449" x2="164" y2="449" stroke-width="2" stroke-linecap="square" stroke="rgb(0, 0, 0)" id="svg_68"/>
  <line x1="204" y1="449" x2="284" y2="449" stroke-width="2" stroke-linecap="square" stroke="rgb(0, 0, 0)" id="svg_69"/>
  <path d="m164,449l2,0l3,-7l6,14l6,-14l6,14l6,-14l6,14l3,-7l2,0" stroke-width="2" stroke-linecap="square" stroke="rgb(0, 0, 0)" fill="rgb(0, 0, 0)" fill-opacity="0" id="svg_70"/>
  <text x="184" y="432" text-anchor="middle" font-size="11px" font-family="Arial" id="svg_71">7 Ω</text>
  <line x1="84" y1="249" x2="84" y2="449" stroke-width="2" stroke-linecap="square" stroke="rgb(0, 0, 0)" id="svg_72"/>
  <line x1="384" y1="249" x2="431" y2="249" stroke-width="2" stroke-linecap="square" stroke="rgb(0, 0, 0)" id="svg_73"/>
  <line x1="431" y1="239" x2="431" y2="259" stroke-width="2" stroke-linecap="square" stroke="rgb(0, 0, 0)" id="svg_74"/>
  <line x1="437" y1="244" x2="437" y2="254" stroke-width="3" stroke-linecap="square" stroke="rgb(0, 0, 0)" id="svg_75"/>
  <line x1="437" y1="249" x2="484" y2="249" stroke-width="2" stroke-linecap="square" stroke="rgb(0, 0, 0)" id="svg_76"/>
  <text style="cursor: move;" x="434" y="235" text-anchor="middle" font-size="12px" font-family="Arial" id="svg_77" fill="black">8 V</text>
  <line x1="284" y1="249" x2="314" y2="249" stroke-width="2" stroke-linecap="square" stroke="rgb(0, 0, 0)" id="svg_78"/>
  <line x1="354" y1="249" x2="384" y2="249" stroke-width="2" stroke-linecap="square" stroke="rgb(0, 0, 0)" id="svg_79"/>
  <path d="m314,249l2,0l3,-7l6,14l6,-14l6,14l6,-14l6,14l3,-7l2,0" stroke-width="2" stroke-linecap="square" stroke="rgb(0, 0, 0)" fill="rgb(0, 0, 0)" fill-opacity="0" id="svg_80"/>
  <text x="334" y="232" text-anchor="middle" font-size="11px" font-family="Arial" id="svg_81">6 Ω</text>
  <line x1="484" y1="249" x2="484" y2="152" stroke-width="2" stroke-linecap="square" stroke="rgb(0, 0, 0)" id="svg_82"/>
  <line x1="474" y1="152" x2="494" y2="152" stroke-width="2" stroke-linecap="square" stroke="rgb(0, 0, 0)" id="svg_83"/>
  <line x1="479" y1="146" x2="489" y2="146" stroke-width="3" stroke-linecap="square" stroke="rgb(0, 0, 0)" id="svg_84"/>
  <line x1="484" y1="146" x2="484" y2="49" stroke-width="2" stroke-linecap="square" stroke="rgb(0, 0, 0)" id="svg_85"/>
  <text x="470" y="149" text-anchor="end" font-size="12px" font-family="Arial" id="svg_86" fill="black">1 V</text>
  <line x1="384" y1="49" x2="414" y2="49" stroke-width="2" stroke-linecap="square" stroke="rgb(0, 0, 0)" id="svg_87"/>
  <line x1="454" y1="49" x2="484" y2="49" stroke-width="2" stroke-linecap="square" stroke="rgb(0, 0, 0)" id="svg_88"/>
  <path d="m414,49l2,0l3,-7l6,14l6,-14l6,14l6,-14l6,14l3,-7l2,0" stroke-width="2" stroke-linecap="square" stroke="rgb(0, 0, 0)" fill="rgb(0, 0, 0)" fill-opacity="0" id="svg_89"/>
  <text x="434" y="32" text-anchor="middle" font-size="11px" font-family="Arial" id="svg_90">4 Ω</text>
  <text style="cursor: move;" x="334" y="35" text-anchor="middle" font-size="12px" font-family="Arial" id="svg_95" fill="black">1 V</text>
  <line x1="184" y1="249" x2="214" y2="249" stroke-width="2" stroke-linecap="square" stroke="rgb(0, 0, 0)" id="svg_96"/>
  <line x1="254" y1="249" x2="284" y2="249" stroke-width="2" stroke-linecap="square" stroke="rgb(0, 0, 0)" id="svg_97"/>
  <path d="m214,249l2,0l3,-7l6,14l6,-14l6,14l6,-14l6,14l3,-7l2,0" stroke-width="2" stroke-linecap="square" stroke="rgb(0, 0, 0)" fill="rgb(0, 0, 0)" fill-opacity="0" id="svg_98"/>
  <text x="234" y="232" text-anchor="middle" font-size="11px" font-family="Arial" id="svg_99">9 Ω</text>
  <line x1="184" y1="249" x2="137" y2="249" stroke-width="2" stroke-linecap="square" stroke="rgb(0, 0, 0)" id="svg_100"/>
  <line x1="137" y1="239" x2="137" y2="259" stroke-width="2" stroke-linecap="square" stroke="rgb(0, 0, 0)" id="svg_101"/>
  <line x1="131" y1="244" x2="131" y2="254" stroke-width="3" stroke-linecap="square" stroke="rgb(0, 0, 0)" id="svg_102"/>
  <line x1="131" y1="249" x2="84" y2="249" stroke-width="2" stroke-linecap="square" stroke="rgb(0, 0, 0)" id="svg_103"/>
  <text x="134" y="235" text-anchor="middle" font-size="12px" font-family="Arial" id="svg_104" fill="black">10 V</text>
  <line x1="84" y1="49" x2="84" y2="146" stroke-width="2" stroke-linecap="square" stroke="rgb(0, 0, 0)" id="svg_105"/>
  <line x1="74" y1="146" x2="94" y2="146" stroke-width="2" stroke-linecap="square" stroke="rgb(0, 0, 0)" id="svg_106"/>
  <line x1="79" y1="152" x2="89" y2="152" stroke-width="3" stroke-linecap="square" stroke="rgb(0, 0, 0)" id="svg_107"/>
  <line x1="84" y1="152" x2="84" y2="249" stroke-width="2" stroke-linecap="square" stroke="rgb(0, 0, 0)" id="svg_108"/>
  <text x="70" y="149" text-anchor="end" font-size="12px" font-family="Arial" id="svg_109" fill="black">3 V</text>
  <line x1="84" y1="49" x2="164" y2="49" stroke-width="2" stroke-linecap="square" stroke="rgb(0, 0, 0)" id="svg_110"/>
  <line x1="204" y1="49" x2="284" y2="49" stroke-width="2" stroke-linecap="square" stroke="rgb(0, 0, 0)" id="svg_111"/>
  <path d="m164,49l2,0l3,-7l6,14l6,-14l6,14l6,-14l6,14l3,-7l2,0" stroke-width="2" stroke-linecap="square" stroke="rgb(0, 0, 0)" fill="rgb(0, 0, 0)" fill-opacity="0" id="svg_112"/>
  <text x="184" y="32" text-anchor="middle" font-size="11px" font-family="Arial" id="svg_113">2 Ω</text>
  <line x1="284" y1="49" x2="284" y2="249" stroke-width="2" stroke-linecap="square" stroke="rgb(0, 0, 0)" id="svg_114"/>
  <ellipse cx="484" cy="449" rx="2" ry="2" stroke-width="2" stroke="rgb(0, 0, 0)" fill="rgb(0, 0, 0)" id="svg_115"/>
  <ellipse cx="84" cy="449" rx="2" ry="2" stroke-width="2" stroke="rgb(0, 0, 0)" fill="rgb(0, 0, 0)" id="svg_116"/>
  <ellipse cx="484" cy="49" rx="2" ry="2" stroke-width="2" stroke="rgb(0, 0, 0)" fill="rgb(0, 0, 0)" id="svg_117"/>
  <ellipse cx="84" cy="49" rx="2" ry="2" stroke-width="2" stroke="rgb(0, 0, 0)" fill="rgb(0, 0, 0)" id="svg_118"/>
  <ellipse cx="484" cy="249" rx="2" ry="2" stroke-width="2" stroke="rgb(0, 0, 0)" fill="rgb(0, 0, 0)" id="svg_119"/>
  <ellipse cx="284" cy="449" rx="2" ry="2" stroke-width="2" stroke="rgb(0, 0, 0)" fill="rgb(0, 0, 0)" id="svg_120"/>
  <ellipse cx="284" cy="249" rx="2" ry="2" stroke-width="2" stroke="rgb(0, 0, 0)" fill="rgb(0, 0, 0)" id="svg_121"/>
  <ellipse cx="84" cy="249" rx="2" ry="2" stroke-width="2" stroke="rgb(0, 0, 0)" fill="rgb(0, 0, 0)" id="svg_122"/>
  <ellipse cx="284" cy="49" rx="2" ry="2" stroke-width="2" stroke="rgb(0, 0, 0)" fill="rgb(0, 0, 0)" id="svg_123"/>
  <g transform="rotate(180, 334, 49)" id="svg_124">
   <line x1="284" y1="49" x2="331" y2="49" stroke-width="2" stroke-linecap="square" stroke="rgb(0, 0, 0)" id="svg_91"/>
   <line x1="331" y1="39" x2="331" y2="59" stroke-width="2" stroke-linecap="square" stroke="rgb(0, 0, 0)" id="svg_92"/>
   <line x1="337" y1="44" x2="337" y2="54" stroke-width="3" stroke-linecap="square" stroke="rgb(0, 0, 0)" id="svg_93"/>
   <line x1="337" y1="49" x2="384" y2="49" stroke-width="2" stroke-linecap="square" stroke="rgb(0, 0, 0)" id="svg_94"/>
  </g>
 </g>

</svg>