<?xml version="1.0" encoding="utf-8"?>
<svg id="master-artboard" viewBox="0 0 1392.679443359375 712.7990112304688" version="1.1" xmlns="http://www.w3.org/2000/svg" x="0px" y="0px" style="enable-background:new 0 0 1400 980;" width="1392.679443359375px" height="712.7990112304688px"><rect id="ee-background" x="0" y="0" width="1392.679443359375" height="712.7990112304688" style="fill: white; fill-opacity: 1; pointer-events: none;"/><defs><style id="ee-google-fonts">@import url(https://fonts.googleapis.com/css?family=Roboto:100,100italic,300,300italic,400,400italic,500,500italic,700,700italic,900,900italic);</style><style id="style-1">@import url(https://fonts.googleapis.com/css?family=Open+Sans:300,300italic,400,400italic,600,600italic,700,700italic,800,800italic);</style><style id="style-2">@import url(https://fonts.googleapis.com/css?family=Roboto:100,100italic,300,300italic,400,400italic,500,500italic,700,700italic,900,900italic|Open+Sans:300,300italic,400,400italic,600,600italic,700,700italic,800,800italic);</style></defs>























































































































<g transform="matrix(1.225966453552246, 0, 0, 1.225966453552246, -3.66029923498445, -11.228958129882812)"><rect id="rect-1" x="0" y="0" width="1141.9561767578125" height="602.7222290039062" style="fill: white; fill-opacity: 0; pointer-events: none;"/><path d="M 260.79998779296875 86.19999694824219" style="fill: rgb(23, 168, 247); fill-opacity: 1; stroke: rgb(0, 0, 0); stroke-opacity: 1; stroke-width: 0; paint-order: fill;" transform="matrix(1, 0, 0, 1, 103.21753692626953, -39.15147399902344)"/><title>Layer 1</title><text fill="black" id="svg_1" font-family="Arial" font-size="11px" text-anchor="start" y="179" x="62" style="fill: rgb(19, 128, 42);  font-family: Arial;  font-size: 11px;  text-anchor: start;  white-space: pre;  stroke: rgb(19, 128, 42); ; fill: black; id: svg_1; font-weight: Arial; font-family: Arial; font-size: 11px; text-anchor: start" transform="matrix(2.0416665077209473, 0, 0, 2.0416665077209473, 535.2781372070314, -21.35535430908203)">–</text><text fill="black" id="svg_2" font-family="Arial" font-size="11px" text-anchor="start" y="142" x="62" style="fill: rgb(19, 128, 42);  font-family: Arial;  font-size: 11px;  text-anchor: start;  white-space: pre;  stroke: rgb(19, 128, 42); ; fill: black; id: svg_2; font-weight: Arial; font-family: Arial; font-size: 11px; text-anchor: start" transform="matrix(2.0416665077209473, 0, 0, 2.0416665077209473, 535.2781372070314, -21.35535430908203)">+</text><text fill="black" id="svg_3" font-family="Arial" font-size="11px" text-anchor="start" y="441" x="134" style="fill: black;  font-family: Arial;  font-size: 11px;  text-anchor: start;  white-space: pre; ; fill: black; id: svg_3; font-weight: Arial; font-family: Arial; font-size: 11px; text-anchor: start" transform="matrix(2.0416665077209473, 0, 0, 2.0416665077209473, -112.50081296292774, -516.0875736367162)">Junction</text><text fill="black" id="svg_4" font-family="Arial" font-size="11px" text-anchor="start" y="411" x="134" style="fill: black;  font-family: Arial;  font-size: 11px;  text-anchor: start;  white-space: pre; ; fill: black; id: svg_4; font-weight: Arial; font-family: Arial; font-size: 11px; text-anchor: start" transform="matrix(2.0416665077209473, 0, 0, 2.0416665077209473, -116.06002187366539, -514.3079691813473)">Cell/Battery</text><text fill="black" id="svg_5" font-family="Arial" font-size="11px" text-anchor="start" y="381" x="134" style="fill: black;  font-family: Arial;  font-size: 11px;  text-anchor: start;  white-space: pre; ; fill: black; id: svg_5; font-weight: Arial; font-family: Arial; font-size: 11px; text-anchor: start" transform="matrix(2.0416665077209473, 0, 0, 2.0416665077209473, -114.28041741829657, -505.4099469045032)">Resistor (Resistance)</text><text fill="black" id="svg_6" font-family="Arial" font-size="11px" text-anchor="start" y="351" x="134" style="fill: black;  font-family: Arial;  font-size: 11px;  text-anchor: start;  white-space: pre; ; fill: black; id: svg_6; font-weight: Arial; font-family: Arial; font-size: 11px; text-anchor: start" transform="matrix(2.3329623363136425, 0, 0, 2.3329623363136425, -151.2682392966526, -597.6142307521077)">Wire</text><path d="M 123 408 L 101 408" id="svg_8" stroke="rgb(0, 0, 0)" stroke-linecap="square" stroke-width="2" transform="matrix(2.0416665077209473, 0, 0, 2.0416665077209473, -107.1619372901041, -512.5283647259785)"/><path d="M 101 398 L 101 418" id="svg_9" stroke="rgb(0, 0, 0)" stroke-linecap="square" stroke-width="2" transform="matrix(2.0416665077209473, 0, 0, 2.0416665077209473, -107.1619372901041, -512.5283647259785)"/><path d="M 95 403 L 95 413" id="svg_10" stroke="rgb(0, 0, 0)" stroke-linecap="square" stroke-width="3" transform="matrix(2.0416665077209473, 0, 0, 2.0416665077209473, -107.1619372901041, -512.5283647259785)"/><path d="M 95 408 L 73 408" id="svg_11" stroke="rgb(0, 0, 0)" stroke-linecap="square" stroke-width="2" transform="matrix(2.0416665077209473, 0, 0, 2.0416665077209473, -107.1619372901041, -512.5283647259785)"/><path id="svg_15" fill-opacity="0" fill="rgb(0, 0, 0)" stroke="rgb(0, 0, 0)" stroke-linecap="square" stroke-width="2" d="m78,378l2,0l3,-7l6,14l6,-14l6,14l6,-14l6,14l3,-7l2,0" transform="matrix(2.0416665077209473, 0, 0, 2.0416665077209473, -108.94160405219009, -510.74876027060964)"/><text id="svg_16" font-family="Arial" font-size="11px" text-anchor="middle" y="361" x="98" style="font-family: Arial;  font-size: 11px;  text-anchor: middle;  white-space: pre; ; id: svg_16; font-weight: Arial; font-family: Arial; font-size: 11px; text-anchor: middle" transform="matrix(2.0416665077209473, 0, 0, 2.0416665077209473, 535.2781372070314, -21.35535430908203)"/><path d="M 73 348 L 123 348" id="svg_17" stroke="rgb(0, 0, 0)" stroke-linecap="square" stroke-width="2" transform="matrix(1.6015998840201464, 0, 0, 2.0416665077209473, -67.91867455746979, -500.0710712316796)"/><text class="single-line-text" dominant-baseline="text-before-edge" style="white-space: pre;  stroke: rgb(47, 118, 249);  fill: rgb(47, 118, 249);  font-family: Arial;  font-size: 12.2449px;  text-anchor: start;  -webkit-text-stroke: rgb(47, 118, 249);  color: rgb(47, 118, 249); " x="240" y="90" transform="matrix(2.0416665077209473, 0, 0, 2.0416665077209473, 535.2781372070314, -21.35535430908203)">Wire W2</text><text id="svg_19" font-family="Arial" font-size="11px" text-anchor="start" y="230" x="30" style="font-family: Arial;  font-size: 12.2449px;  text-anchor: start;  white-space: pre;  fill: rgb(19, 128, 42);  stroke: rgb(19, 128, 42); ; id: svg_19; font-weight: Arial; font-family: Arial; font-size: 11px; text-anchor: start" transform="matrix(2.0416665077209473, 0, 0, 2.0416665077209473, 529.9392995023635, -21.355354309081918)">Wire W1</text><text class="single-line-text" dominant-baseline="text-before-edge" style="white-space: pre;  font-family: Arial;  font-size: 14.2041px;  text-anchor: start;  stroke: rgb(0, 0, 0); " x="60" y="260" transform="matrix(2.0416665077209473, 0, 0, 2.0416665077209473, 535.2781372070314, -21.35535430908203)">B</text><text id="svg_21" font-family="Arial" font-size="11px" text-anchor="start" y="50" x="70" style="font-family: Arial;  font-size: 14.6939px;  text-anchor: start;  white-space: pre;  stroke: rgb(0, 0, 0); ; id: svg_21; font-weight: Arial; font-family: Arial; font-size: 11px; text-anchor: start" transform="matrix(2.0416665077209473, 0, 0, 2.0416665077209473, 535.2781372070314, -21.35535430908203)">A</text><path d="M 120 270 L 95 270" id="svg_22" stroke="rgb(0, 0, 0)" stroke-linecap="square" stroke-width="2" style="stroke: rgb(47, 118, 249); fill: rgb(47, 118, 249);" transform="matrix(2.0416665077209473, 0, 0, 2.0416665077209473, 535.2781372070314, -21.35535430908203)"/><path id="svg_23" fill="rgb(0, 0, 0)" stroke="rgb(0, 0, 0)" stroke-linecap="square" stroke-width="2" d="m95,270l0,3l-5,-3l5,-3l0,3" style="fill: rgb(47, 118, 249); stroke: rgb(47, 118, 249);" transform="matrix(2.0416665077209473, 0, 0, 2.0416665077209473, 535.2781372070314, -21.35535430908203)"/><text fill="black" id="svg_24" font-family="Arial" font-size="11px" text-anchor="middle" y="285" x="105" style="fill: rgb(47, 118, 249);  font-family: Arial;  font-size: 11px;  text-anchor: middle;  white-space: pre;  stroke: rgb(47, 118, 249); ; fill: black; id: svg_24; font-weight: Arial; font-family: Arial; font-size: 11px; text-anchor: middle" transform="matrix(2.0416665077209473, 0, 0, 2.0416665077209473, 535.2781372070314, -21.35535430908203)">0.5 A</text><path d="M 240 220 L 240 245" id="svg_25" stroke="rgb(0, 0, 0)" stroke-linecap="square" stroke-width="2" style="stroke: rgb(47, 118, 249); fill: rgb(47, 118, 249);" transform="matrix(2.0416665077209473, 0, 0, 2.0416665077209473, 535.2781372070314, -21.35535430908203)"/><path id="svg_26" fill="rgb(0, 0, 0)" stroke="rgb(0, 0, 0)" stroke-linecap="square" stroke-width="2" d="m240,245l-3,0l3,5l3,-5l-3,0" style="stroke: rgb(47, 118, 249); fill: rgb(47, 118, 249);" transform="matrix(2.0416665077209473, 0, 0, 2.0416665077209473, 535.2781372070314, -21.35535430908203)"/><text id="svg_27" font-family="Arial" font-size="11px" text-anchor="start" y="235" x="248" style="font-family: Arial;  font-size: 11px;  text-anchor: start;  white-space: pre;  stroke: rgb(47, 118, 249);  fill: rgb(47, 118, 249); ; id: svg_27; font-weight: Arial; font-family: Arial; font-size: 11px; text-anchor: start" transform="matrix(2.0416665077209473, 0, 0, 2.0416665077209473, 535.2781372070314, -21.35535430908203)">0.5 A</text><path d="M 190 50 L 215 50" id="svg_28" stroke="rgb(0, 0, 0)" stroke-linecap="square" stroke-width="2" style="stroke: rgb(47, 118, 249); fill: rgb(47, 118, 249);" transform="matrix(2.0416665077209473, 0, 0, 2.0416665077209473, 535.2781372070314, -21.35535430908203)"/><path id="svg_29" fill="rgb(0, 0, 0)" stroke="rgb(0, 0, 0)" stroke-linecap="square" stroke-width="2" d="m215,50l0,-3l5,3l-5,3l0,-3" style="stroke: rgb(47, 118, 249); fill: rgb(47, 118, 249);" transform="matrix(2.0416665077209473, 0, 0, 2.0416665077209473, 535.2781372070314, -21.35535430908203)"/><text class="single-line-text" dominant-baseline="text-before-edge" style="white-space: pre;  stroke: rgb(47, 118, 249);  fill: rgb(47, 118, 249);  font-family: Arial;  font-size: 12.2449px;  text-anchor: middle;  -webkit-text-stroke: rgb(47, 118, 249);  color: rgb(47, 118, 249); " x="205" y="28" transform="matrix(2.0416665077209473, 0, 0, 2.0416665077209473, 540.616974424928, -24.9145792832702)">I      = 0.5 A</text><path d="M 70 100 L 70 75" id="svg_31" stroke="rgb(0, 0, 0)" stroke-linecap="square" stroke-width="2" style="fill: rgb(19, 128, 42); stroke: rgb(19, 128, 42);" transform="matrix(2.0416665077209473, 0, 0, 2.0416665077209473, 535.2781372070314, -21.35535430908203)"/><path id="svg_32" fill="rgb(0, 0, 0)" stroke="rgb(0, 0, 0)" stroke-linecap="square" stroke-width="2" d="m70,75l3,0l-3,-5l-3,5l3,0" style="fill: rgb(19, 128, 42); stroke: rgb(19, 128, 42);" transform="matrix(2.0416665077209473, 0, 0, 2.0416665077209473, 535.2781372070314, -21.35535430908203)"/><path d="M 17.411115646362305 85 L 17.411115646362305 78.47000122070312 L 18.17111587524414 78.47000122070312 L 18.17111587524414 85 L 17.411115646362305 85 ZM 33.85426330566406 81.16999816894531 L 33.85426330566406 80.55000305175781 L 38.01426315307617 80.55000305175781 L 38.01426315307617 81.16999816894531 L 33.85426330566406 81.16999816894531 M 33.85426330566406 82.98999786376953 L 33.85426330566406 82.37999725341797 L 38.01426315307617 82.37999725341797 L 38.01426315307617 82.98999786376953 L 33.85426330566406 82.98999786376953 ZM 45.71329879760742 81.72000122070312 C 45.71329879760742 82.85333251953125 45.53329849243164 83.69667053222656 45.173301696777344 84.25 C 44.81996536254883 84.80999755859375 44.276634216308594 85.08999633789062 43.54330062866211 85.08999633789062 C 42.843299865722656 85.08999633789062 42.309967041015625 84.80333709716797 41.94329833984375 84.2300033569336 C 41.57663345336914 83.663330078125 41.3932991027832 82.82666778564453 41.3932991027832 81.72000122070312 C 41.3932991027832 80.586669921875 41.56996536254883 79.74333190917969 41.923301696777344 79.19000244140625 C 42.276634216308594 78.63666534423828 42.81663513183594 78.36000061035156 43.54330062866211 78.36000061035156 C 44.24996566772461 78.36000061035156 44.78996658325195 78.6500015258789 45.163299560546875 79.2300033569336 C 45.52996826171875 79.80332946777344 45.71329879760742 80.63333129882812 45.71329879760742 81.72000122070312 M 42.1432991027832 81.72000122070312 C 42.1432991027832 82.67333221435547 42.253299713134766 83.36666870117188 42.47330093383789 83.80000305175781 C 42.69996643066406 84.23332977294922 43.05663299560547 84.44999694824219 43.54330062866211 84.44999694824219 C 44.0366325378418 84.44999694824219 44.3932991027832 84.2300033569336 44.61330032348633 83.79000091552734 C 44.8399658203125 83.3499984741211 44.95330047607422 82.66000366210938 44.95330047607422 81.72000122070312 C 44.95330047607422 80.78666687011719 44.8399658203125 80.0999984741211 44.61330032348633 79.66000366210938 C 44.3932991027832 79.22666931152344 44.0366325378418 79.01000213623047 43.54330062866211 79.01000213623047 C 43.05663299560547 79.01000213623047 42.69996643066406 79.22333526611328 42.47330093383789 79.6500015258789 C 42.253299713134766 80.08333587646484 42.1432991027832 80.77333068847656 42.1432991027832 81.72000122070312 ZM 46.8453483581543 84.52999877929688 C 46.8453483581543 84.33000183105469 46.89201354980469 84.17666625976562 46.985347747802734 84.06999969482422 C 47.07201385498047 83.97000122070312 47.2020149230957 83.91999816894531 47.37534713745117 83.91999816894531 C 47.548683166503906 83.91999816894531 47.68201446533203 83.97000122070312 47.77534866333008 84.06999969482422 C 47.87534713745117 84.17666625976562 47.92534637451172 84.33000183105469 47.92534637451172 84.52999877929688 C 47.92534637451172 84.72333526611328 47.87534713745117 84.87000274658203 47.77534866333008 84.97000122070312 C 47.67534637451172 85.07666778564453 47.542015075683594 85.12999725341797 47.37534713745117 85.12999725341797 C 47.222015380859375 85.12999725341797 47.0953483581543 85.08333587646484 46.9953498840332 84.98999786376953 C 46.895347595214844 84.89666748046875 46.8453483581543 84.74333190917969 46.8453483581543 84.52999877929688 ZM 51.090415954589844 81.01000213623047 C 51.77708053588867 81.01000213623047 52.317081451416016 81.18000030517578 52.71041488647461 81.5199966430664 C 53.11041259765625 81.86000061035156 53.3104133605957 82.32666778564453 53.3104133605957 82.91999816894531 C 53.3104133605957 83.5999984741211 53.093746185302734 84.12999725341797 52.66041564941406 84.51000213623047 C 52.227081298828125 84.89666748046875 51.63374710083008 85.08999633789062 50.88041305541992 85.08999633789062 C 50.14707946777344 85.08999633789062 49.58374786376953 84.97333526611328 49.19041442871094 84.73999786376953 L 49.19041442871094 84.0199966430664 C 49.40374755859375 84.15333557128906 49.66374588012695 84.26000213623047 49.97041320800781 84.33999633789062 C 50.283748626708984 84.413330078125 50.590415954589844 84.44999694824219 50.89041519165039 84.44999694824219 C 51.41041564941406 84.44999694824219 51.817081451416016 84.32666778564453 52.11041259765625 84.08000183105469 C 52.40374755859375 83.83333587646484 52.5504150390625 83.47666931152344 52.5504150390625 83.01000213623047 C 52.5504150390625 82.09666442871094 51.990413665771484 81.63999938964844 50.87041473388672 81.63999938964844 C 50.590415954589844 81.63999938964844 50.213748931884766 81.68333435058594 49.740413665771484 81.7699966430664 L 49.35041427612305 81.5199966430664 L 49.60041427612305 78.47000122070312 L 52.85041427612305 78.47000122070312 L 52.85041427612305 79.1500015258789 L 50.23041534423828 79.1500015258789 L 50.07041549682617 81.11000061035156 C 50.41041564941406 81.0433349609375 50.75041580200195 81.01000213623047 51.090415954589844 81.01000213623047 ZM 61.219451904296875 85 L 60.39944839477539 82.91999816894531 L 57.779449462890625 82.91999816894531 L 56.97945022583008 85 L 56.209449768066406 85 L 58.789451599121094 78.44000244140625 L 59.42945098876953 78.44000244140625 L 61.99945068359375 85 L 61.219451904296875 85 M 60.16944885253906 82.23999786376953 L 59.40945053100586 80.20999908447266 C 59.3094482421875 79.9566650390625 59.20611572265625 79.6433334350586 59.099449157714844 79.2699966430664 C 59.03278350830078 79.5566635131836 58.939449310302734 79.87000274658203 58.81945037841797 80.20999908447266 L 58.0494499206543 82.23999786376953 L 60.16944885253906 82.23999786376953 Z" transform="matrix(2.7315060356647796, 0, 0, 2.7315060356647796, 490.75984760997744, -65.99054688419713)" style="white-space: pre; fill: rgb(19, 128, 42); stroke: rgb(19, 128, 42); -webkit-text-stroke: rgb(19, 128, 42); color: rgb(19, 128, 42);"/><path d="M 80 250 L 80 260" id="svg_34" stroke="rgb(0, 0, 0)" stroke-linecap="square" stroke-width="2" transform="matrix(2.0416665077209473, 0, 0, 2.0416665077209473, 535.2781372070314, -21.35535430908203)"/><path d="M 80 60 L 80 80" id="svg_35" stroke="rgb(0, 0, 0)" stroke-linecap="square" stroke-width="2" style="fill: rgb(19, 128, 42); stroke: rgb(19, 128, 42);" transform="matrix(2.0416665077209473, 0, 0, 2.0416665077209473, 535.2781372070314, -21.35535430908203)"/><path d="M 80 260 L 230 260" id="svg_36" stroke="rgb(0, 0, 0)" stroke-linecap="square" stroke-width="2" style="stroke: rgb(47, 118, 249); fill: rgb(47, 118, 249);" transform="matrix(2.0416665077209473, 0, 0, 2.0416665077209473, 535.2781372070314, -21.35535430908203)"/><path d="M 230 60 L 230 140" id="svg_37" stroke="rgb(0, 0, 0)" stroke-linecap="square" stroke-width="2" style="fill: rgb(47, 118, 249); stroke: rgb(47, 118, 249);" transform="matrix(2.0416665077209473, 0, 0, 2.0416665077209473, 535.2781372070314, -21.35535430908203)"/><path d="M 230 180 L 230 260" id="svg_38" stroke="rgb(0, 0, 0)" stroke-linecap="square" stroke-width="2" style="stroke: rgb(47, 118, 249); fill: rgb(47, 118, 249);" transform="matrix(2.0416665077209473, 0, 0, 2.0416665077209473, 535.2781372070314, -21.35535430908203)"/><path id="svg_39" fill-opacity="0" fill="rgb(0, 0, 0)" stroke="rgb(0, 0, 0)" stroke-linecap="square" stroke-width="2" d="m230,140l0,2l-7,3l14,6l-14,6l14,6l-14,6l14,6l-7,3l0,2" style="stroke: rgb(47, 118, 249); fill-opacity: 0; fill: rgb(47, 118, 249);" transform="matrix(2.0416665077209473, 0, 0, 2.0416665077209473, 535.2781372070314, -21.35535430908203)"/><text class="single-line-text" dominant-baseline="text-before-edge" style="white-space: pre;  stroke: rgb(47, 118, 249);  fill: rgb(47, 118, 249);  font-family: Arial;  font-size: 12.2449px;  text-anchor: end;  -webkit-text-stroke: rgb(47, 118, 249);  color: rgb(47, 118, 249); " x="216" y="150" transform="matrix(2.0416665077209473, 0, 0, 2.0416665077209473, 540.616974424928, -16.01651709118542)">R     = 10 Ω</text><path d="M 80 60 L 230 60" id="svg_41" stroke="rgb(0, 0, 0)" stroke-linecap="square" stroke-width="2" style="fill: rgb(47, 118, 249); stroke: rgb(47, 118, 249);" transform="matrix(2.0416665077209473, 0, 0, 2.0416665077209473, 535.2781372070314, -21.35535430908203)"/><path d="M 80 60 L 80 157" id="svg_42" stroke="rgb(0, 0, 0)" stroke-linecap="square" stroke-width="2" style="fill: rgb(19, 128, 42); stroke: rgb(19, 128, 42);" transform="matrix(2.0416665077209473, 0, 0, 2.0416665077209473, 535.2781372070314, -21.35535430908203)"/><path d="M 70 157 L 90 157" id="svg_43" stroke="rgb(0, 0, 0)" stroke-linecap="square" stroke-width="2" style="fill: rgb(19, 128, 42); stroke: rgb(19, 128, 42);" transform="matrix(2.0416665077209473, 0, 0, 2.0416665077209473, 535.2781372070314, -21.35535430908203)"/><path d="M 75 163 L 85 163" id="svg_44" stroke="rgb(0, 0, 0)" stroke-linecap="square" stroke-width="3" style="stroke: rgb(19, 128, 42); fill: rgb(19, 128, 42);" transform="matrix(2.0416665077209473, 0, 0, 2.0416665077209473, 535.2781372070314, -21.35535430908203)"/><path d="M 80 163 L 80 260" id="svg_45" stroke="rgb(0, 0, 0)" stroke-linecap="square" stroke-width="2" style="fill: rgb(19, 128, 42); stroke: rgb(19, 128, 42);" transform="matrix(2.0416665077209473, 0, 0, 2.0416665077209473, 535.2781372070314, -21.35535430908203)"/><path d="M 82 260 A 2 2 0 0 1 80 262 A 2 2 0 0 1 78 260 A 2 2 0 0 1 80 258 A 2 2 0 0 1 82 260 Z" id="svg_47" fill="rgb(0, 0, 0)" stroke="rgb(0, 0, 0)" stroke-width="2" transform="matrix(2.0416665077209473, 0, 0, 2.0416665077209473, 535.2781372070314, -21.35535430908203)"/><path d="M 82 60 A 2 2 0 0 1 80 62 A 2 2 0 0 1 78 60 A 2 2 0 0 1 80 58 A 2 2 0 0 1 82 60 Z" id="svg_48" fill="rgb(0, 0, 0)" stroke="rgb(0, 0, 0)" stroke-width="2" transform="matrix(2.0416665077209473, 0, 0, 2.0416665077209473, 535.2781372070314, -21.35535430908203)"/><path d="M 101 438 A 2 2 0 0 1 99 440 A 2 2 0 0 1 97 438 A 2 2 0 0 1 99 436 A 2 2 0 0 1 101 438 Z" id="svg_49" fill="rgb(0, 0, 0)" stroke="rgb(0, 0, 0)" stroke-width="2" transform="matrix(2.0000003509375124, 0, 0, 1.9999993773950564, -103.79774840406026, -497.9202433555038)"/><path d="M -44.3953742980957 114 L -45.19537353515625 114 L -46.605377197265625 109.31999969482422 C -46.67204284667969 109.11333465576172 -46.74537658691406 108.8499984741211 -46.825374603271484 108.52999877929688 C -46.91204071044922 108.21666717529297 -46.95537567138672 108.02666473388672 -46.95537567138672 107.95999908447266 C -47.028709411621094 108.38666534423828 -47.14204406738281 108.8499984741211 -47.29537582397461 109.3499984741211 L -48.665374755859375 114 L -49.46537399291992 114 L -51.325374603271484 107.01000213623047 L -50.46537399291992 107.01000213623047 L -49.355377197265625 111.33000183105469 C -49.208709716796875 111.9366683959961 -49.09870910644531 112.48332977294922 -49.02537536621094 112.97000122070312 C -48.9387092590332 112.38999938964844 -48.812042236328125 111.81999969482422 -48.6453742980957 111.26000213623047 L -47.3853759765625 107.01000213623047 L -46.52537536621094 107.01000213623047 L -45.21537780761719 111.30000305175781 C -45.062042236328125 111.7933349609375 -44.93204116821289 112.3499984741211 -44.825374603271484 112.97000122070312 C -44.765377044677734 112.51667022705078 -44.652042388916016 111.96666717529297 -44.485374450683594 111.31999969482422 L -43.3853759765625 107.01000213623047 L -42.52537536621094 107.01000213623047 L -44.3953742980957 114 ZM -38.96924591064453 114 L -39.7392463684082 114 L -39.7392463684082 109.0199966430664 C -39.7392463684082 108.5999984741211 -39.729248046875 108.2066650390625 -39.70924758911133 107.83999633789062 C -39.77591323852539 107.90666961669922 -39.849246978759766 107.97666931152344 -39.92924880981445 108.05000305175781 C -40.01591491699219 108.12333679199219 -40.39591598510742 108.43333435058594 -41.06924819946289 108.9800033569336 L -41.4892463684082 108.44000244140625 L -39.63924789428711 107.01000213623047 L -38.96924591064453 107.01000213623047 L -38.96924591064453 114 Z" transform="matrix(2.0416665077209473, 0, 0, 2.0416665077209473, 652.7325530801301, -56.94760307742126)" style="fill: rgb(19, 128, 43); white-space: pre; color: rgb(19, 128, 43); stroke: rgb(19, 128, 43); -webkit-text-stroke: rgb(19, 128, 43);"/><path d="M 26.256996154785156 78.47000122070312 L 27.076995849609375 78.47000122070312 L 24.716995239257812 85 L 23.966995239257812 85 L 21.626995086669922 78.47000122070312 L 22.42699432373047 78.47000122070312 L 23.936994552612305 82.69000244140625 C 24.110328674316406 83.17666625976562 24.246994018554688 83.6500015258789 24.346994400024414 84.11000061035156 C 24.45366096496582 83.62999725341797 24.59366226196289 83.1500015258789 24.76699447631836 82.66999816894531 L 26.256996154785156 78.47000122070312 ZM 41.86541748046875 81.16999816894531 L 41.86541748046875 80.55000305175781 L 46.02541732788086 80.55000305175781 L 46.02541732788086 81.16999816894531 L 41.86541748046875 81.16999816894531 M 41.86541748046875 82.98999786376953 L 41.86541748046875 82.37999725341797 L 46.02541732788086 82.37999725341797 L 46.02541732788086 82.98999786376953 L 41.86541748046875 82.98999786376953 ZM 51.43445587158203 81.01000213623047 C 52.12112045288086 81.01000213623047 52.6611213684082 81.18000030517578 53.0544548034668 81.5199966430664 C 53.45445251464844 81.86000061035156 53.65445327758789 82.32666778564453 53.65445327758789 82.91999816894531 C 53.65445327758789 83.5999984741211 53.43778610229492 84.12999725341797 53.00445556640625 84.51000213623047 C 52.57112121582031 84.89666748046875 51.977787017822266 85.08999633789062 51.22445297241211 85.08999633789062 C 50.491119384765625 85.08999633789062 49.92778778076172 84.97333526611328 49.534454345703125 84.73999786376953 L 49.534454345703125 84.0199966430664 C 49.74778747558594 84.15333557128906 50.00778579711914 84.26000213623047 50.314453125 84.33999633789062 C 50.62778854370117 84.413330078125 50.93445587158203 84.44999694824219 51.23445510864258 84.44999694824219 C 51.75445556640625 84.44999694824219 52.1611213684082 84.32666778564453 52.45445251464844 84.08000183105469 C 52.74778747558594 83.83333587646484 52.89445495605469 83.47666931152344 52.89445495605469 83.01000213623047 C 52.89445495605469 82.09666442871094 52.33445358276367 81.63999938964844 51.214454650878906 81.63999938964844 C 50.93445587158203 81.63999938964844 50.55778884887695 81.68333435058594 50.08445358276367 81.7699966430664 L 49.694454193115234 81.5199966430664 L 49.944454193115234 78.47000122070312 L 53.194454193115234 78.47000122070312 L 53.194454193115234 79.1500015258789 L 50.57445526123047 79.1500015258789 L 50.41445541381836 81.11000061035156 C 50.75445556640625 81.0433349609375 51.09445571899414 81.01000213623047 51.43445587158203 81.01000213623047 ZM 61.18348693847656 78.47000122070312 L 62.00348663330078 78.47000122070312 L 59.64348602294922 85 L 58.89348602294922 85 L 56.55348587036133 78.47000122070312 L 57.353485107421875 78.47000122070312 L 58.863487243652344 82.69000244140625 C 59.03681945800781 83.17666625976562 59.173484802246094 83.6500015258789 59.27348709106445 84.11000061035156 C 59.38015365600586 83.62999725341797 59.5201530456543 83.1500015258789 59.693485260009766 82.66999816894531 L 61.18348693847656 78.47000122070312 Z" transform="matrix(2.731506109237671, 0, 0, 2.731506109237671, 492.1228332519531, 80.09967803955078)" style="white-space: pre; fill: rgb(19, 128, 42); stroke: rgb(19, 128, 42); -webkit-text-stroke: rgb(19, 128, 42); color: rgb(19, 128, 42);"/><path d="M -44.3953742980957 114 L -45.19537353515625 114 L -46.605377197265625 109.31999969482422 C -46.67204284667969 109.11333465576172 -46.74537658691406 108.8499984741211 -46.825374603271484 108.52999877929688 C -46.91204071044922 108.21666717529297 -46.95537567138672 108.02666473388672 -46.95537567138672 107.95999908447266 C -47.028709411621094 108.38666534423828 -47.14204406738281 108.8499984741211 -47.29537582397461 109.3499984741211 L -48.665374755859375 114 L -49.46537399291992 114 L -51.325374603271484 107.01000213623047 L -50.46537399291992 107.01000213623047 L -49.355377197265625 111.33000183105469 C -49.208709716796875 111.9366683959961 -49.09870910644531 112.48332977294922 -49.02537536621094 112.97000122070312 C -48.9387092590332 112.38999938964844 -48.812042236328125 111.81999969482422 -48.6453742980957 111.26000213623047 L -47.3853759765625 107.01000213623047 L -46.52537536621094 107.01000213623047 L -45.21537780761719 111.30000305175781 C -45.062042236328125 111.7933349609375 -44.93204116821289 112.3499984741211 -44.825374603271484 112.97000122070312 C -44.765377044677734 112.51667022705078 -44.652042388916016 111.96666717529297 -44.485374450683594 111.31999969482422 L -43.3853759765625 107.01000213623047 L -42.52537536621094 107.01000213623047 L -44.3953742980957 114 ZM -38.96924591064453 114 L -39.7392463684082 114 L -39.7392463684082 109.0199966430664 C -39.7392463684082 108.5999984741211 -39.729248046875 108.2066650390625 -39.70924758911133 107.83999633789062 C -39.77591323852539 107.90666961669922 -39.849246978759766 107.97666931152344 -39.92924880981445 108.05000305175781 C -40.01591491699219 108.12333679199219 -40.39591598510742 108.43333435058594 -41.06924819946289 108.9800033569336 L -41.4892463684082 108.44000244140625 L -39.63924789428711 107.01000213623047 L -38.96924591064453 107.01000213623047 L -38.96924591064453 114 Z" transform="matrix(2.0416665077209473, 0, 0, 2.0416665077209473, 675.9950561523438, 85.71317291259766)" style="fill: rgb(19, 128, 43); white-space: pre; color: rgb(19, 128, 43); stroke: rgb(19, 128, 43);"/><path d="M -44.3953742980957 114 L -45.19537353515625 114 L -46.605377197265625 109.31999969482422 C -46.67204284667969 109.11333465576172 -46.74537658691406 108.8499984741211 -46.825374603271484 108.52999877929688 C -46.91204071044922 108.21666717529297 -46.95537567138672 108.02666473388672 -46.95537567138672 107.95999908447266 C -47.028709411621094 108.38666534423828 -47.14204406738281 108.8499984741211 -47.29537582397461 109.3499984741211 L -48.665374755859375 114 L -49.46537399291992 114 L -51.325374603271484 107.01000213623047 L -50.46537399291992 107.01000213623047 L -49.355377197265625 111.33000183105469 C -49.208709716796875 111.9366683959961 -49.09870910644531 112.48332977294922 -49.02537536621094 112.97000122070312 C -48.9387092590332 112.38999938964844 -48.812042236328125 111.81999969482422 -48.6453742980957 111.26000213623047 L -47.3853759765625 107.01000213623047 L -46.52537536621094 107.01000213623047 L -45.21537780761719 111.30000305175781 C -45.062042236328125 111.7933349609375 -44.93204116821289 112.3499984741211 -44.825374603271484 112.97000122070312 C -44.765377044677734 112.51667022705078 -44.652042388916016 111.96666717529297 -44.485374450683594 111.31999969482422 L -43.3853759765625 107.01000213623047 L -42.52537536621094 107.01000213623047 L -44.3953742980957 114 ZM -37.31924819946289 114 L -41.90924835205078 114 L -41.90924835205078 113.31999969482422 L -40.06924819946289 111.45999908447266 C -39.509246826171875 110.8933334350586 -39.13924789428711 110.48999786376953 -38.95924758911133 110.25 C -38.77924728393555 110.01000213623047 -38.64591598510742 109.77333068847656 -38.55924987792969 109.54000091552734 C -38.46591567993164 109.3133316040039 -38.419246673583984 109.06666564941406 -38.419246673583984 108.80000305175781 C -38.419246673583984 108.42666625976562 -38.5325813293457 108.12999725341797 -38.759246826171875 107.91000366210938 C -38.98591613769531 107.69667053222656 -39.302581787109375 107.58999633789062 -39.70924758911133 107.58999633789062 C -39.995914459228516 107.58999633789062 -40.269248962402344 107.63666534423828 -40.52924728393555 107.7300033569336 C -40.789249420166016 107.82333374023438 -41.079246520996094 107.99666595458984 -41.39924621582031 108.25 L -41.81924819946289 107.70999908447266 C -41.17258071899414 107.17666625976562 -40.47257995605469 106.91000366210938 -39.71924591064453 106.91000366210938 C -39.05924987792969 106.91000366210938 -38.542579650878906 107.07666778564453 -38.169246673583984 107.41000366210938 C -37.79591369628906 107.75 -37.609249114990234 108.20333099365234 -37.609249114990234 108.7699966430664 C -37.609249114990234 109.20999908447266 -37.732582092285156 109.64666748046875 -37.979248046875 110.08000183105469 C -38.232582092285156 110.51333618164062 -38.699249267578125 111.0633316040039 -39.379249572753906 111.7300033569336 L -40.90924835205078 113.2300033569336 L -40.90924835205078 113.26000213623047 L -37.31924819946289 113.26000213623047 L -37.31924819946289 114 Z" transform="matrix(2.0416665077209473, 0, 0, 2.0416665077209473, 1011.4849853515625, -169.94032287597656)" style="fill: rgb(47, 118, 249); white-space: pre; color: rgb(47, 118, 249); stroke: rgb(47, 118, 249); -webkit-text-stroke: rgb(47, 118, 249);"/><path d="M -44.3953742980957 114 L -45.19537353515625 114 L -46.605377197265625 109.31999969482422 C -46.67204284667969 109.11333465576172 -46.74537658691406 108.8499984741211 -46.825374603271484 108.52999877929688 C -46.91204071044922 108.21666717529297 -46.95537567138672 108.02666473388672 -46.95537567138672 107.95999908447266 C -47.028709411621094 108.38666534423828 -47.14204406738281 108.8499984741211 -47.29537582397461 109.3499984741211 L -48.665374755859375 114 L -49.46537399291992 114 L -51.325374603271484 107.01000213623047 L -50.46537399291992 107.01000213623047 L -49.355377197265625 111.33000183105469 C -49.208709716796875 111.9366683959961 -49.09870910644531 112.48332977294922 -49.02537536621094 112.97000122070312 C -48.9387092590332 112.38999938964844 -48.812042236328125 111.81999969482422 -48.6453742980957 111.26000213623047 L -47.3853759765625 107.01000213623047 L -46.52537536621094 107.01000213623047 L -45.21537780761719 111.30000305175781 C -45.062042236328125 111.7933349609375 -44.93204116821289 112.3499984741211 -44.825374603271484 112.97000122070312 C -44.765377044677734 112.51667022705078 -44.652042388916016 111.96666717529297 -44.485374450683594 111.31999969482422 L -43.3853759765625 107.01000213623047 L -42.52537536621094 107.01000213623047 L -44.3953742980957 114 ZM -37.31924819946289 114 L -41.90924835205078 114 L -41.90924835205078 113.31999969482422 L -40.06924819946289 111.45999908447266 C -39.509246826171875 110.8933334350586 -39.13924789428711 110.48999786376953 -38.95924758911133 110.25 C -38.77924728393555 110.01000213623047 -38.64591598510742 109.77333068847656 -38.55924987792969 109.54000091552734 C -38.46591567993164 109.3133316040039 -38.419246673583984 109.06666564941406 -38.419246673583984 108.80000305175781 C -38.419246673583984 108.42666625976562 -38.5325813293457 108.12999725341797 -38.759246826171875 107.91000366210938 C -38.98591613769531 107.69667053222656 -39.302581787109375 107.58999633789062 -39.70924758911133 107.58999633789062 C -39.995914459228516 107.58999633789062 -40.269248962402344 107.63666534423828 -40.52924728393555 107.7300033569336 C -40.789249420166016 107.82333374023438 -41.079246520996094 107.99666595458984 -41.39924621582031 108.25 L -41.81924819946289 107.70999908447266 C -41.17258071899414 107.17666625976562 -40.47257995605469 106.91000366210938 -39.71924591064453 106.91000366210938 C -39.05924987792969 106.91000366210938 -38.542579650878906 107.07666778564453 -38.169246673583984 107.41000366210938 C -37.79591369628906 107.75 -37.609249114990234 108.20333099365234 -37.609249114990234 108.7699966430664 C -37.609249114990234 109.20999908447266 -37.732582092285156 109.64666748046875 -37.979248046875 110.08000183105469 C -38.232582092285156 110.51333618164062 -38.699249267578125 111.0633316040039 -39.379249572753906 111.7300033569336 L -40.90924835205078 113.2300033569336 L -40.90924835205078 113.26000213623047 L -37.31924819946289 113.26000213623047 L -37.31924819946289 114 Z" transform="matrix(2.0416665077209473, 0, 0, 2.0416665077209473, 978.6722412109375, 86.32390594482422)" style="fill: rgb(47, 118, 249); white-space: pre; color: rgb(47, 118, 249); stroke: rgb(47, 118, 249); -webkit-text-stroke: rgb(47, 118, 249);"/><g transform="matrix(3.6162919998168945, 0, 0, 2.832718849182129, -261.98035430908203, -493.39893341064453)"><g id="g-1" transform="matrix(1, 0, 0, 1, 0, 0)">
	<g id="g-2" transform="matrix(0.9999999999999999, 0, 0, 1, 22.637046812047487, 170.87985211735756)">
		<path class="st0" d="M58,49h100v100H58V49z" style="fill: rgb(51, 51, 51); fill-opacity: 0; stroke: rgb(75, 77, 74);"/>
	</g>
</g></g><path d="M 67.13329315185547 207 L 66.3932876586914 207 L 65.16329193115234 205.22999572753906 L 64.78329467773438 205.52999877929688 L 64.78329467773438 207 L 64.1432876586914 207 L 64.1432876586914 203.0800018310547 L 64.78329467773438 203.0800018310547 L 64.78329467773438 204.9499969482422 C 64.95662689208984 204.73666381835938 65.12995910644531 204.52999877929688 65.30329132080078 204.3300018310547 L 66.36328887939453 203.0800018310547 L 67.09329223632812 203.0800018310547 C 66.40662384033203 203.8866729736328 65.9166259765625 204.4600067138672 65.623291015625 204.8000030517578 L 67.13329315185547 207 ZM 68.88197326660156 207.0500030517578 C 68.4153060913086 207.0500030517578 68.05197143554688 206.9166717529297 67.79197692871094 206.64999389648438 C 67.53197479248047 206.38333129882812 67.40196990966797 206.01333618164062 67.40196990966797 205.5399932861328 C 67.40196990966797 205.05332946777344 67.52530670166016 204.67333984375 67.77197265625 204.39999389648438 C 68.01197052001953 204.1199951171875 68.34197235107422 203.97999572753906 68.76197052001953 203.97999572753906 C 69.15530395507812 203.97999572753906 69.4653091430664 204.10000610351562 69.69197082519531 204.33999633789062 C 69.91864013671875 204.57333374023438 70.03197479248047 204.89999389648438 70.03197479248047 205.32000732421875 L 70.03197479248047 205.66000366210938 L 68.05197143554688 205.66000366210938 C 68.0653076171875 205.94667053222656 68.14530944824219 206.1666717529297 68.29197692871094 206.32000732421875 C 68.43863677978516 206.47332763671875 68.64197540283203 206.5500030517578 68.90196990966797 206.5500030517578 C 69.08197021484375 206.5500030517578 69.24530792236328 206.5366668701172 69.39197540283203 206.50999450683594 C 69.54530334472656 206.47666931152344 69.7086410522461 206.4199981689453 69.88197326660156 206.33999633789062 L 69.88197326660156 206.85000610351562 C 69.7286376953125 206.92333984375 69.57197570800781 206.97666931152344 69.41197204589844 207.00999450683594 C 69.25863647460938 207.0366668701172 69.08197021484375 207.0500030517578 68.88197326660156 207.0500030517578 M 68.76197052001953 204.4600067138672 C 68.56197357177734 204.4600067138672 68.40196990966797 204.52333068847656 68.28197479248047 204.64999389648438 C 68.16197204589844 204.77667236328125 68.08863830566406 204.9600067138672 68.06197357177734 205.1999969482422 L 69.41197204589844 205.1999969482422 C 69.40530395507812 204.9600067138672 69.34530639648438 204.77667236328125 69.23197174072266 204.64999389648438 C 69.11863708496094 204.52333068847656 68.96197509765625 204.4600067138672 68.76197052001953 204.4600067138672 ZM 70.29488372802734 204.02999877929688 L 70.9848861694336 204.02999877929688 L 71.58488464355469 205.72000122070312 C 71.67821502685547 205.9600067138672 71.73822021484375 206.18333435058594 71.76488494873047 206.38999938964844 L 71.78488159179688 206.38999938964844 C 71.80488586425781 206.2899932861328 71.83488464355469 206.1699981689453 71.87488555908203 206.02999877929688 C 71.92154693603516 205.88999938964844 72.1482162475586 205.22332763671875 72.55488586425781 204.02999877929688 L 73.2348861694336 204.02999877929688 L 71.97488403320312 207.38999938964844 C 71.74154663085938 208.00999450683594 71.3548812866211 208.32000732421875 70.81488037109375 208.32000732421875 C 70.67488098144531 208.32000732421875 70.54154968261719 208.30332946777344 70.41488647460938 208.27000427246094 L 70.41488647460938 207.77000427246094 C 70.50821685791016 207.79666137695312 70.61488342285156 207.80999755859375 70.7348861694336 207.80999755859375 C 71.04154968261719 207.80999755859375 71.2548828125 207.63333129882812 71.37488555908203 207.27999877929688 L 71.4848861694336 207 L 70.29488372802734 204.02999877929688 Z" transform="matrix(5.464112281799316, 0, 0, 5.464112281799316, -305.31475830078125, -960.9642944335938)" style="fill: rgb(51, 51, 51); white-space: pre; color: rgb(51, 51, 51); stroke: rgb(0, 0, 0); stroke-opacity: 0; paint-order: fill; stroke-width: 1;"/></g><text fill="black" id="text-1" font-family="Arial" font-size="11px" text-anchor="start" y="142" x="62" style="white-space: pre; stroke: rgb(0, 0, 0); fill: black; font-family: Arial; font-size: 11px; text-anchor: start;" transform="matrix(2.50301456451416, 0, 0, 2.50301456451416, -26.071248531341553, 58.62977600097656)">+</text><text fill="black" id="text-2" font-family="Arial" font-size="11px" text-anchor="start" y="179" x="62" style="white-space: pre; stroke: rgb(0, 0, 0); fill: black; font-family: Arial; font-size: 11px; text-anchor: start;" transform="matrix(2.50301456451416, 0, 0, 2.50301456451416, -81.1051344871521, -34.88129425048828)">–</text></svg>